Coordinates
version=1
nRows=17
nColumns=40
inDegrees=yes

Units are S.I. units (second, meters, Newtons, ...)
If the header above contains a line with 'inDegrees', this indicates whether rotational values are in degrees (yes) or radians (no).

endheader
time	pelvis_tilt	pelvis_list	pelvis_rotation	pelvis_tx	pelvis_ty	pelvis_tz	hip_flexion_r	hip_adduction_r	hip_rotation_r	knee_angle_r	knee_angle_r_beta	ankle_angle_r	subtalar_angle_r	mtp_angle_r	hip_flexion_l	hip_adduction_l	hip_rotation_l	knee_angle_l	knee_angle_l_beta	ankle_angle_l	subtalar_angle_l	mtp_angle_l	lumbar_extension	lumbar_bending	lumbar_rotation	arm_flex_r	arm_add_r	arm_rot_r	elbow_flex_r	pro_sup_r	wrist_flex_r	wrist_dev_r	arm_flex_l	arm_add_l	arm_rot_l	elbow_flex_l	pro_sup_l	wrist_flex_l	wrist_dev_l
      0.37000000	      1.10140263	     -9.70784760	     89.39724809	      0.27040169	      0.99827550	      1.53253194	     16.62044676	      3.63055915	     -0.35283279	     11.51150805	      0.20091372	      2.84947986	      0.00000000	      0.00000000	     25.93971630	     -1.08961798	     -0.52982765	     57.98482473	      1.01202611	     -7.18000758	      0.00000000	      0.00000000	     -1.40724579	     -0.17587764	     -1.85867736	      0.00000000	      0.00000000	      0.00000000	      0.00000000	      0.00000000	      0.00000000	      0.00000000	      0.00000000	      0.00000000	      0.00000000	      0.00000000	      0.00000000	      0.00000000	      0.00000000
      0.38000000	      0.58040681	     -9.66728129	     89.23111993	      0.27074460	      1.00075319	      1.51338703	     14.52977535	      3.13249270	     -0.12257163	      9.98475104	      0.17426678	      3.09074237	      0.00000000	      0.00000000	     27.33344715	     -0.68133703	     -0.82889896	     56.38818163	      0.98415943	     -5.82550207	      0.00000000	      0.00000000	     -1.30130498	     -0.83500272	     -1.71964610	      0.00000000	      0.00000000	      0.00000000	      0.00000000	      0.00000000	      0.00000000	      0.00000000	      0.00000000	      0.00000000	      0.00000000	      0.00000000	      0.00000000	      0.00000000	      0.00000000
      0.39000000	      0.09929368	     -9.97918044	     89.03248716	      0.27104926	      1.00206101	      1.49458957	     12.97788829	      2.66840142	      0.14184959	      8.70043847	      0.15185130	      3.50757203	      0.00000000	      0.00000000	     29.05030195	     -0.32584522	     -1.11450953	     54.57908840	      0.95258480	     -4.61615845	      0.00000000	      0.00000000	     -0.82425181	     -1.40571185	     -1.56917980	      0.00000000	      0.00000000	      0.00000000	      0.00000000	      0.00000000	      0.00000000	      0.00000000	      0.00000000	      0.00000000	      0.00000000	      0.00000000	      0.00000000	      0.00000000	      0.00000000
      0.40000000	     -0.35569255	     -9.93488259	     88.72727188	      0.27153405	      1.00325365	      1.47543098	     11.02626298	      2.24187520	      0.53528134	      7.40094545	      0.12917087	      3.86218159	      0.00000000	      0.00000000	     30.17539043	     -0.09490560	     -1.57024096	     52.39245717	      0.91442088	     -3.45137714	      0.00000000	      0.00000000	     -0.72842072	     -1.95216450	     -1.32587420	      0.00000000	      0.00000000	      0.00000000	      0.00000000	      0.00000000	      0.00000000	      0.00000000	      0.00000000	      0.00000000	      0.00000000	      0.00000000	      0.00000000	      0.00000000	      0.00000000
      0.41000000	     -0.73662573	    -10.07046664	     88.37273241	      0.27200390	      1.00349627	      1.45643510	      9.38488593	      1.88492205	      0.96654909	      6.28982710	      0.10977819	      4.35801657	      0.00000000	      0.00000000	     31.41179898	      0.03387275	     -2.01510426	     49.99644090	      0.87260251	     -2.43520602	      0.00000000	      0.00000000	     -0.44931546	     -2.38404139	     -1.06023146	      0.00000000	      0.00000000	      0.00000000	      0.00000000	      0.00000000	      0.00000000	      0.00000000	      0.00000000	      0.00000000	      0.00000000	      0.00000000	      0.00000000	      0.00000000	      0.00000000
      0.42000000	     -1.01296780	    -10.18907475	     88.01917550	      0.27259400	      1.00303829	      1.43738859	      7.79237892	      1.63438994	      1.36516778	      5.31572920	      0.09277698	      4.92337128	      0.00000000	      0.00000000	     32.52406365	      0.00546212	     -2.47700843	     47.39531449	      0.82720429	     -1.58638460	      0.00000000	      0.00000000	     -0.17795474	     -2.71228334	     -0.74219359	      0.00000000	      0.00000000	      0.00000000	      0.00000000	      0.00000000	      0.00000000	      0.00000000	      0.00000000	      0.00000000	      0.00000000	      0.00000000	      0.00000000	      0.00000000	      0.00000000
      0.43000000	     -1.25429452	    -10.00278875	     87.53084227	      0.27327835	      1.00236417	      1.41819355	      5.90067693	      1.40718620	      1.85886932	      4.38647806	      0.07655848	      5.48763959	      0.00000000	      0.00000000	     33.13592941	     -0.13743593	     -3.10174761	     44.48775092	      0.77645773	     -0.93680362	      0.00000000	      0.00000000	     -0.29339813	     -2.97489022	     -0.31373760	      0.00000000	      0.00000000	      0.00000000	      0.00000000	      0.00000000	      0.00000000	      0.00000000	      0.00000000	      0.00000000	      0.00000000	      0.00000000	      0.00000000	      0.00000000	      0.00000000
      0.44000000	     -1.39621685	     -9.95049544	     87.06439683	      0.27396550	      1.00079182	      1.39907275	      4.23455331	      1.27445114	      2.30427738	      3.61941135	      0.06317065	      6.14690957	     -0.00000000	      0.00000000	     33.82012173	     -0.38273803	     -3.65901799	     41.42665650	      0.72303155	     -0.41545223	      0.00000000	      0.00000000	     -0.25933208	     -3.12479913	      0.07165323	     -0.00000000	      0.00000000	      0.00000000	      0.00000000	      0.00000000	      0.00000000	     -0.00000000	     -0.00000000	     -0.00000000	     -0.00000000	      0.00000000	      0.00000000	     -0.00000000	     -0.00000000
      0.45000000	     -1.46609875	     -9.85974121	     86.56836616	      0.27466822	      0.99860551	      1.37993039	      2.58431073	      1.20153102	      2.72925500	      2.97242274	      0.05187856	      6.86334550	      0.00000000	      0.00000000	     34.36048173	     -0.72853183	     -4.24254321	     38.18169819	      0.66639635	     -0.06338575	      0.00000000	      0.00000000	     -0.28909368	     -3.19233807	      0.48651877	      0.00000000	      0.00000000	      0.00000000	      0.00000000	      0.00000000	      0.00000000	      0.00000000	      0.00000000	      0.00000000	      0.00000000	      0.00000000	      0.00000000	      0.00000000	      0.00000000
      0.46000000	     -1.44841464	     -9.88301235	     86.09270284	      0.27531837	      0.99564792	      1.36085234	      1.12495328	      1.21446715	      3.10023455	      2.46703779	      0.04305793	      7.67635462	      0.00000000	      0.00000000	     34.94374168	     -1.14735825	     -4.74013896	     34.79013836	      0.60720246	      0.16695544	      0.00000000	      0.00000000	     -0.20560001	     -3.14847613	      0.87161908	      0.00000000	      0.00000000	      0.00000000	      0.00000000	      0.00000000	      0.00000000	      0.00000000	      0.00000000	      0.00000000	      0.00000000	      0.00000000	      0.00000000	      0.00000000	      0.00000000
      0.47000000	     -1.41253522	     -9.65179478	     85.55143434	      0.27603198	      0.99250849	      1.34155680	     -0.60305109	      1.20692357	      3.47855133	      2.00231426	      0.03494698	      8.46544462	      0.00000000	      0.00000000	     35.11305413	     -1.62432336	     -5.37386153	     31.19970757	      0.54453762	      0.23118083	      0.00000000	      0.00000000	     -0.42974695	     -3.10377650	      1.33313692	      0.00000000	      0.00000000	      0.00000000	      0.00000000	      0.00000000	      0.00000000	      0.00000000	      0.00000000	      0.00000000	      0.00000000	      0.00000000	      0.00000000	      0.00000000	      0.00000000
      0.48000000	     -1.29222780	     -9.49992437	     85.06075118	      0.27661681	      0.98874715	      1.32225602	     -2.21210022	      1.26955948	      3.79426907	      1.62884338	      0.02842868	      9.24872453	      0.00000000	      0.00000000	     35.28727810	     -2.13108422	     -5.85843698	     27.50016125	      0.47996836	      0.29627742	      0.00000000	      0.00000000	     -0.58295559	     -2.96188138	      1.76953678	      0.00000000	      0.00000000	      0.00000000	      0.00000000	      0.00000000	      0.00000000	      0.00000000	      0.00000000	      0.00000000	      0.00000000	      0.00000000	      0.00000000	      0.00000000	      0.00000000
      0.49000000	     -1.10687554	     -9.49346409	     84.58710967	      0.27709864	      0.98438375	      1.30301575	     -3.58327688	      1.38951642	      4.08244124	      1.43223015	      0.02499713	     10.12521288	      0.00000000	      0.00000000	     35.54436466	     -2.69010955	     -6.29017357	     23.73698918	      0.41428862	      0.30337478	      0.00000000	      0.00000000	     -0.60068928	     -2.72999889	      2.19407267	      0.00000000	      0.00000000	      0.00000000	      0.00000000	      0.00000000	      0.00000000	      0.00000000	      0.00000000	      0.00000000	      0.00000000	      0.00000000	      0.00000000	      0.00000000	      0.00000000
      0.50000000	     -0.92263216	     -9.43537487	     84.09917586	      0.27751064	      0.97977042	      1.28358201	     -5.00685166	      1.46837635	      4.39980334	      1.27804586	      0.02230611	     10.99847089	      0.00000000	      0.00000000	     35.62103189	     -3.21856860	     -6.62857718	     19.87967106	      0.34696571	      0.31278571	      0.00000000	      0.00000000	     -0.66783285	     -2.51186335	      2.64838369	      0.00000000	     -0.00000000	     -0.00000000	      0.00000000	      0.00000000	     -0.00000000	     -0.00000000	      0.00000000	      0.00000000	     -0.00000000	      0.00000000	      0.00000000	      0.00000000	      0.00000000
      0.51000000	     -0.70409902	     -9.31236978	     83.63087905	      0.27782482	      0.97499469	      1.26391380	     -6.49581551	      1.53983637	      4.70441680	      1.17161331	      0.02044851	     11.74874414	      0.00000000	      0.00000000	     35.52269724	     -3.74638566	     -6.94122117	     16.02769194	      0.27973600	      0.42502556	      0.00000000	      0.00000000	     -0.81710471	     -2.26977536	      3.07236127	      0.00000000	      0.00000000	      0.00000000	      0.00000000	      0.00000000	      0.00000000	      0.00000000	      0.00000000	      0.00000000	      0.00000000	      0.00000000	      0.00000000	      0.00000000	      0.00000000
      0.52000000	     -0.40385565	     -9.46377661	     83.19646147	      0.27803787	      0.96969112	      1.24430377	     -7.61427432	      1.69818258	      5.01755013	      1.24101680	      0.02165983	     12.45739569	     -0.00000000	      0.00000000	     35.67926401	     -4.33005091	     -6.93408447	     12.33477278	      0.21528240	      0.73456835	      0.00000000	     -0.00000000	     -0.68596488	     -1.91718252	      3.51583260	     -0.00000000	     -0.00000000	     -0.00000000	      0.00000000	      0.00000000	     -0.00000000	     -0.00000000	      0.00000000	      0.00000000	      0.00000000	      0.00000000	      0.00000000	     -0.00000000	      0.00000000
      0.53000000	     -0.18246669	     -9.36308027	     82.81933369	      0.27797483	      0.96468819	      1.22416690	     -9.04771100	      1.69666657	      5.35202078	      1.27285772	      0.02221556	     13.07276990	      0.00000000	      0.00000000	     35.45628760	     -4.75987872	     -7.05395242	      8.77583249	      0.15316717	      1.01229414	      0.00000000	      0.00000000	     -0.79689785	     -1.66890546	      3.90962623	      0.00000000	      0.00000000	      0.00000000	      0.00000000	      0.00000000	      0.00000000	      0.00000000	      0.00000000	      0.00000000	      0.00000000	      0.00000000	      0.00000000	      0.00000000	      0.00000000
